#Comment line ignore any data following # character 
#Hierarchical Translation and Rotation (.htr) file 
[Header]	
#Header keywords are followed by a single value 
FileType HTR		#Single word string
DataType HTRS		#Translation followed by rotation and scale data
FileVersion 1		#integer
NumSegments 84		#integer
NumFrames 2		#integer
DataFrameRate 30		#integer, data frame rate in this file
EulerRotationOrder ZYX
CalibrationUnits mm
RotationUnits Degrees
GlobalAxisofGravity Y
BoneLengthAxis Y
ScaleFactor 1.00
[SegmentNames&Hierarchy]
#CHILD	PARENT
MASTER GLOBAL
root MASTER
chest root
L_mid_tent01 root
R_mid_tent01 root
spine01 root
Bip01_Neck chest
L_humerus chest
R_humerus chest
weapon_bone chest
Bip01_Head Bip01_Neck
eye_left_bone Bip01_Head
eye_right_bone Bip01_Head
L_forearm L_humerus
L_front_hand L_forearm
L_weapon_bone L_forearm
L_front_hand01_01 L_front_hand
L_front_hand02_01 L_front_hand
L_front_hand03_01 L_front_hand
L_front_hand01_02 L_front_hand01_01
L_front_hand02_02 L_front_hand02_01
L_front_hand03_02 L_front_hand03_01
R_forearm R_humerus
R_front_hand R_forearm
R_weapon_bone R_forearm
R_front_hand01_01 R_front_hand
R_front_hand02_01 R_front_hand
R_front_hand03_01 R_front_hand
R_front_hand01_02 R_front_hand01_01
R_front_hand02_02 R_front_hand02_01
R_front_hand03_02 R_front_hand03_01
null_rope01_connect L_mid_tent01
Rope1_Seg01 null_rope01_connect
Rope1_Seg02 Rope1_Seg01
Rope1_Seg03 Rope1_Seg02
Rope1_Seg04 Rope1_Seg03
Rope1_Seg05 Rope1_Seg04
Rope1_Seg06 Rope1_Seg05
Rope1_Seg07 Rope1_Seg06
Rope1_Seg09 Rope1_Seg07
L_mid_hand01 Rope1_Seg09
L_mid_hand02 Rope1_Seg09
L_mid_hand03 Rope1_Seg09
null_rope02_connect R_mid_tent01
Rope2_Seg01 null_rope02_connect
Rope2_Seg02 Rope2_Seg01
Rope2_Seg03 Rope2_Seg02
Rope2_Seg04 Rope2_Seg03
Rope2_Seg05 Rope2_Seg04
Rope2_Seg06 Rope2_Seg05
Rope2_Seg07 Rope2_Seg06
Rope2_Seg09 Rope2_Seg07
R_mid_hand01 Rope2_Seg09
R_mid_hand02 Rope2_Seg09
R_mid_hand03 Rope2_Seg09
spine02 spine01
spine03 spine02
pelvis spine03
null_rope03_connect pelvis
null_rope04_connect pelvis
Rope3_Seg01 null_rope03_connect
Rope3_Seg02 Rope3_Seg01
Rope3_Seg03 Rope3_Seg02
Rope3_Seg04 Rope3_Seg03
Rope3_Seg05 Rope3_Seg04
Rope3_Seg06 Rope3_Seg05
Rope3_Seg07 Rope3_Seg06
Rope3_Seg08 Rope3_Seg07
Rope3_Seg09 Rope3_Seg08
R_rear_hand01 Rope3_Seg09
R_rear_hand02 Rope3_Seg09
R_rear_hand03 Rope3_Seg09
Rope4_Seg01 null_rope04_connect
Rope4_Seg02 Rope4_Seg01
Rope4_Seg03 Rope4_Seg02
Rope4_Seg04 Rope4_Seg03
Rope4_Seg05 Rope4_Seg04
Rope4_Seg06 Rope4_Seg05
Rope4_Seg07 Rope4_Seg06
Rope4_Seg08 Rope4_Seg07
Rope4_Seg09 Rope4_Seg08
L_rear_hand01 Rope4_Seg09
L_rear_hand02 Rope4_Seg09
L_rear_hand03 Rope4_Seg09
[BasePosition]
#SegmentName Tx, Ty, Tz, Rx, Ry, Rz, BoneLength
MASTER 0.000000 0.000000 0.000000 -90.000000 0.000000 0.000000 10.000000 
root 0.000000 0.000000 0.000000 0.000000 0.000000 0.000000 10.000000 
chest 0.000000 0.000000 0.000000 0.000000 0.000000 0.000000 10.000000 
L_mid_tent01 0.000000 0.000000 0.000000 0.000000 0.000000 0.000000 10.000000 
R_mid_tent01 0.000000 0.000000 0.000000 0.000000 0.000000 0.000000 10.000000 
spine01 0.000000 0.000000 0.000000 0.000000 0.000000 0.000000 10.000000 
Bip01_Neck 0.000000 0.000000 0.000000 0.000000 0.000000 0.000000 10.000000 
L_humerus 0.000000 0.000000 0.000000 0.000000 0.000000 0.000000 10.000000 
R_humerus 0.000000 0.000000 0.000000 0.000000 0.000000 0.000000 10.000000 
weapon_bone 0.000000 0.000000 0.000000 0.000000 0.000000 0.000000 10.000000 
Bip01_Head 0.000000 0.000000 0.000000 0.000000 0.000000 0.000000 10.000000 
eye_left_bone 0.000000 0.000000 0.000000 0.000000 0.000000 0.000000 10.000000 
eye_right_bone 0.000000 0.000000 0.000000 0.000000 0.000000 0.000000 10.000000 
L_forearm 0.000000 0.000000 0.000000 0.000000 0.000000 0.000000 10.000000 
L_front_hand 0.000000 0.000000 0.000000 0.000000 0.000000 0.000000 10.000000 
L_weapon_bone 0.000000 0.000000 0.000000 0.000000 0.000000 0.000000 10.000000 
L_front_hand01_01 0.000000 0.000000 0.000000 0.000000 0.000000 0.000000 10.000000 
L_front_hand02_01 0.000000 0.000000 0.000000 0.000000 0.000000 0.000000 10.000000 
L_front_hand03_01 0.000000 0.000000 0.000000 0.000000 0.000000 0.000000 10.000000 
L_front_hand01_02 0.000000 0.000000 0.000000 0.000000 0.000000 0.000000 10.000000 
L_front_hand02_02 0.000000 0.000000 0.000000 0.000000 0.000000 0.000000 10.000000 
L_front_hand03_02 0.000000 0.000000 0.000000 0.000000 0.000000 0.000000 10.000000 
R_forearm 0.000000 0.000000 0.000000 0.000000 0.000000 0.000000 10.000000 
R_front_hand 0.000000 0.000000 0.000000 0.000000 0.000000 0.000000 10.000000 
R_weapon_bone 0.000000 0.000000 0.000000 0.000000 0.000000 0.000000 10.000000 
R_front_hand01_01 0.000000 0.000000 0.000000 0.000000 0.000000 0.000000 10.000000 
R_front_hand02_01 0.000000 0.000000 0.000000 0.000000 0.000000 0.000000 10.000000 
R_front_hand03_01 0.000000 0.000000 0.000000 0.000000 0.000000 0.000000 10.000000 
R_front_hand01_02 0.000000 0.000000 0.000000 0.000000 0.000000 0.000000 10.000000 
R_front_hand02_02 0.000000 0.000000 0.000000 0.000000 0.000000 0.000000 10.000000 
R_front_hand03_02 0.000000 0.000000 0.000000 0.000000 0.000000 0.000000 10.000000 
null_rope01_connect 0.000000 0.000000 0.000000 0.000000 0.000000 0.000000 10.000000 
Rope1_Seg01 0.000000 0.000000 0.000000 0.000000 0.000000 0.000000 10.000000 
Rope1_Seg02 0.000000 0.000000 0.000000 0.000000 0.000000 0.000000 10.000000 
Rope1_Seg03 0.000000 0.000000 0.000000 0.000000 0.000000 0.000000 10.000000 
Rope1_Seg04 0.000000 0.000000 0.000000 0.000000 0.000000 0.000000 10.000000 
Rope1_Seg05 0.000000 0.000000 0.000000 0.000000 0.000000 0.000000 10.000000 
Rope1_Seg06 0.000000 0.000000 0.000000 0.000000 0.000000 0.000000 10.000000 
Rope1_Seg07 0.000000 0.000000 0.000000 0.000000 0.000000 0.000000 10.000000 
Rope1_Seg09 0.000000 0.000000 0.000000 0.000000 0.000000 0.000000 10.000000 
L_mid_hand01 0.000000 0.000000 0.000000 0.000000 0.000000 0.000000 10.000000 
L_mid_hand02 0.000000 0.000000 0.000000 0.000000 0.000000 0.000000 10.000000 
L_mid_hand03 0.000000 0.000000 0.000000 0.000000 0.000000 0.000000 10.000000 
null_rope02_connect 0.000000 0.000000 0.000000 0.000000 0.000000 0.000000 10.000000 
Rope2_Seg01 0.000000 0.000000 0.000000 0.000000 0.000000 0.000000 10.000000 
Rope2_Seg02 0.000000 0.000000 0.000000 0.000000 0.000000 0.000000 10.000000 
Rope2_Seg03 0.000000 0.000000 0.000000 0.000000 0.000000 0.000000 10.000000 
Rope2_Seg04 0.000000 0.000000 0.000000 0.000000 0.000000 0.000000 10.000000 
Rope2_Seg05 0.000000 0.000000 0.000000 0.000000 0.000000 0.000000 10.000000 
Rope2_Seg06 0.000000 0.000000 0.000000 0.000000 0.000000 0.000000 10.000000 
Rope2_Seg07 0.000000 0.000000 0.000000 0.000000 0.000000 0.000000 10.000000 
Rope2_Seg09 0.000000 0.000000 0.000000 0.000000 0.000000 0.000000 10.000000 
R_mid_hand01 0.000000 0.000000 0.000000 0.000000 0.000000 0.000000 10.000000 
R_mid_hand02 0.000000 0.000000 0.000000 0.000000 0.000000 0.000000 10.000000 
R_mid_hand03 0.000000 0.000000 0.000000 0.000000 0.000000 0.000000 10.000000 
spine02 0.000000 0.000000 0.000000 0.000000 0.000000 0.000000 10.000000 
spine03 0.000000 0.000000 0.000000 0.000000 0.000000 0.000000 10.000000 
pelvis 0.000000 0.000000 0.000000 0.000000 0.000000 0.000000 10.000000 
null_rope03_connect 0.000000 0.000000 0.000000 0.000000 0.000000 0.000000 10.000000 
null_rope04_connect 0.000000 0.000000 0.000000 0.000000 0.000000 0.000000 10.000000 
Rope3_Seg01 0.000000 0.000000 0.000000 0.000000 0.000000 0.000000 10.000000 
Rope3_Seg02 0.000000 0.000000 0.000000 0.000000 0.000000 0.000000 10.000000 
Rope3_Seg03 0.000000 0.000000 0.000000 0.000000 0.000000 0.000000 10.000000 
Rope3_Seg04 0.000000 0.000000 0.000000 0.000000 0.000000 0.000000 10.000000 
Rope3_Seg05 0.000000 0.000000 0.000000 0.000000 0.000000 0.000000 10.000000 
Rope3_Seg06 0.000000 0.000000 0.000000 0.000000 0.000000 0.000000 10.000000 
Rope3_Seg07 0.000000 0.000000 0.000000 0.000000 0.000000 0.000000 10.000000 
Rope3_Seg08 0.000000 0.000000 0.000000 0.000000 0.000000 0.000000 10.000000 
Rope3_Seg09 0.000000 0.000000 0.000000 0.000000 0.000000 0.000000 10.000000 
R_rear_hand01 0.000000 0.000000 0.000000 0.000000 0.000000 0.000000 10.000000 
R_rear_hand02 0.000000 0.000000 0.000000 0.000000 0.000000 0.000000 10.000000 
R_rear_hand03 0.000000 0.000000 0.000000 0.000000 0.000000 0.000000 10.000000 
Rope4_Seg01 0.000000 0.000000 0.000000 0.000000 0.000000 0.000000 10.000000 
Rope4_Seg02 0.000000 0.000000 0.000000 0.000000 0.000000 0.000000 10.000000 
Rope4_Seg03 0.000000 0.000000 0.000000 0.000000 0.000000 0.000000 10.000000 
Rope4_Seg04 0.000000 0.000000 0.000000 0.000000 0.000000 0.000000 10.000000 
Rope4_Seg05 0.000000 0.000000 0.000000 0.000000 0.000000 0.000000 10.000000 
Rope4_Seg06 0.000000 0.000000 0.000000 0.000000 0.000000 0.000000 10.000000 
Rope4_Seg07 0.000000 0.000000 0.000000 0.000000 0.000000 0.000000 10.000000 
Rope4_Seg08 0.000000 0.000000 0.000000 0.000000 0.000000 0.000000 10.000000 
Rope4_Seg09 0.000000 0.000000 0.000000 0.000000 0.000000 0.000000 10.000000 
L_rear_hand01 0.000000 0.000000 0.000000 0.000000 0.000000 0.000000 10.000000 
L_rear_hand02 0.000000 0.000000 0.000000 0.000000 0.000000 0.000000 10.000000 
L_rear_hand03 0.000000 0.000000 0.000000 0.000000 0.000000 0.000000 10.000000 
#Beginning of Data. Separated by tabs
#Fr	Tx	Ty	Tz	Rx	Ry	Rz	SF
[MASTER]
10 0.000000 0.000000 0.000000 0.001660 0.001660 0.001660 0.000000
11 0.000000 0.000000 0.000000 0.001660 0.001660 0.001660 0.000000
[root]
10 -16.502331 63.591091 1493.478760 -85.425720 -14.997142 -113.241341 1494.922974
11 -16.502335 74.100723 1545.971680 -85.265686 -9.102969 -112.232956 1547.834473
[chest]
10 -84.512650 -34.090519 0.000000 -2.094177 -0.014715 167.356888 91.129311
11 -84.512650 -34.090519 0.000000 -2.091715 -0.015033 167.324554 91.129311
[L_mid_tent01]
10 27.299089 22.179220 -249.918686 64.759468 54.134922 157.002655 252.381683
11 27.299091 22.179216 -249.918686 67.022636 27.819883 160.723892 252.381683
[R_mid_tent01]
10 23.228794 24.509907 226.238495 -136.038498 -56.703007 26.557535 228.744751
11 23.228794 24.509907 226.238495 -154.425858 -44.733860 35.835590 228.744751
[spine01]
10 -0.361383 -0.195265 0.000000 -0.000001 -0.000007 22.052340 0.410763
11 -0.361383 -0.195265 0.000000 -0.000001 -0.000007 22.052340 0.410763
[Bip01_Neck]
10 165.484543 71.581718 0.000119 175.896118 1.177290 24.871183 180.302734
11 165.484543 71.581718 0.000119 175.896118 1.177290 24.871183 180.302734
[L_humerus]
10 -13.983130 -135.272980 -120.471481 -114.290794 54.974567 -9.815918 181.680161
11 -13.983130 -135.272980 -120.471481 -104.128464 20.227585 1.404657 181.680161
[R_humerus]
10 -13.983309 -135.273102 125.287651 -135.542419 -36.232449 -138.868454 184.909012
11 -13.983309 -135.273102 125.287651 -129.854660 -28.817360 -148.671616 184.909012
[weapon_bone]
10 235.964890 -300.705902 0.000000 0.000000 -89.951546 -128.212341 382.234833
11 235.964890 -300.705902 0.000000 0.000000 -89.951546 -128.212341 382.234833
[Bip01_Head]
10 168.498398 116.844017 5.768566 1.682290 -0.779312 -42.740124 205.128036
11 166.312103 137.687363 7.299976 1.558241 -1.101236 -39.842133 216.034302
[eye_left_bone]
10 32.339401 158.631012 -74.596382 -108.119812 -86.101730 8.635922 178.253342
11 32.672478 158.764633 -74.507973 -108.932991 -86.212044 9.450518 178.396011
[eye_right_bone]
10 41.749065 159.598007 54.164547 71.793312 -86.105698 8.719560 173.632675
11 42.003529 159.781555 54.245869 71.003410 -86.202591 9.512603 173.888062
[L_forearm]
10 322.776093 0.000000 -0.000119 0.001430 0.001861 -14.917058 322.776093
11 322.776093 0.000000 -0.000119 0.001502 0.001804 -10.418411 322.776093
[L_front_hand]
10 241.149185 -0.042021 -3.300071 -177.836716 -0.687925 -63.854649 241.171753
11 241.149185 -0.042021 -3.300071 -179.161591 -2.105740 -13.141169 241.171753
[L_weapon_bone]
10 156.183838 0.000000 0.000000 0.000014 0.000007 0.000001 156.183838
11 156.183838 0.000000 0.000000 0.000014 0.000007 0.000001 156.183838
[L_front_hand01_01]
10 86.095154 20.947098 -0.655860 -0.366594 -0.477154 75.385574 88.609184
11 86.095154 20.947098 -0.655860 -0.366594 -0.477154 75.385574 88.609184
[L_front_hand02_01]
10 86.935165 -11.437475 24.513514 154.399796 -59.883835 -61.369587 91.046425
11 86.935165 -11.437475 24.513514 154.399796 -59.883835 -61.369587 91.046425
[L_front_hand03_01]
10 86.637497 -14.123976 -20.424902 -153.913849 58.118122 -62.702866 90.126129
11 86.637497 -14.123976 -20.424902 -153.913849 58.118122 -62.702866 90.126129
[L_front_hand01_02]
10 71.020905 -0.000179 0.000030 0.000334 -0.002323 -106.379684 71.020905
11 71.020905 -0.000179 0.000030 0.000334 -0.002323 -106.379684 71.020905
[L_front_hand02_02]
10 71.020927 -0.000119 0.000060 0.000334 -0.002323 -106.379684 71.020927
11 71.020927 -0.000119 0.000060 0.000334 -0.002323 -106.379684 71.020927
[L_front_hand03_02]
10 71.020905 -0.000060 0.000060 0.000334 -0.002323 -106.379684 71.020905
11 71.020905 -0.000060 0.000060 0.000334 -0.002323 -106.379684 71.020905
[R_forearm]
10 322.776428 -0.000060 0.000030 0.193881 -0.082708 -67.399773 322.776428
11 322.776428 -0.000060 0.000030 0.200424 -0.073665 -71.023201 322.776428
[R_front_hand]
10 238.847015 -0.006795 2.210259 -2.635298 -10.645461 -26.312506 238.857239
11 238.847015 -0.006795 2.210259 -2.635298 -10.645461 -26.312506 238.857239
[R_weapon_bone]
10 155.664093 0.002503 -0.000030 0.003487 0.001180 -90.988930 155.664078
11 155.664093 0.002503 -0.000030 0.003487 0.001180 -90.988930 155.664078
[R_front_hand01_01]
10 87.624611 14.231146 22.918642 -154.633499 -59.950619 61.746044 91.683487
11 87.624611 14.231146 22.918642 -154.633499 -59.950619 61.746044 91.683487
[R_front_hand02_01]
10 89.356956 14.367283 -19.491137 154.602661 58.302849 63.744389 92.579636
11 89.356956 14.367283 -19.491137 154.602661 58.302849 63.744389 92.579636
[R_front_hand03_01]
10 87.286232 -22.307278 -0.143439 0.162155 -0.423168 -75.767921 90.091743
11 87.286232 -22.307278 -0.143439 0.162155 -0.423168 -75.767921 90.091743
[R_front_hand01_02]
10 71.020905 0.000060 0.000119 0.002323 -0.000334 106.381714 71.020905
11 71.020905 0.000060 0.000119 0.002323 -0.000334 106.381714 71.020905
[R_front_hand02_02]
10 71.020844 -0.000030 -0.000119 0.002323 -0.000334 106.381714 71.020836
11 71.020844 -0.000030 -0.000119 0.002323 -0.000334 106.381714 71.020836
[R_front_hand03_02]
10 71.020905 0.000000 0.000030 0.002323 -0.000334 106.381714 71.020905
11 71.020905 0.000000 0.000030 0.002323 -0.000334 106.381714 71.020905
[null_rope01_connect]
10 328.732483 0.000000 -0.000238 -156.937012 -10.944742 124.057762 328.732483
11 328.732483 0.000000 -0.000238 -154.579163 -16.647900 96.958878 328.732483
[Rope1_Seg01]
10 0.000000 0.000000 0.000000 108.983139 1.465807 116.680641 0.000000
11 0.000000 0.000000 0.000000 70.240089 13.256994 75.469742 0.000000
[Rope1_Seg02]
10 139.999863 -0.000179 0.000000 -5.115382 -10.927623 1.431222 139.999863
11 139.999863 -0.000179 0.000000 3.229119 -0.517583 4.366856 139.999863
[Rope1_Seg03]
10 139.999924 0.000060 -0.000060 -6.320571 -7.407099 -4.285628 139.999924
11 139.999924 0.000060 -0.000060 5.252463 0.135901 5.173423 139.999924
[Rope1_Seg04]
10 139.999924 -0.000060 -0.000119 -16.957600 -21.594660 7.808889 139.999924
11 139.999924 -0.000060 -0.000119 9.404560 1.347417 6.656935 139.999924
[Rope1_Seg05]
10 139.999832 0.000119 -0.000060 -10.934564 -9.177889 2.382244 139.999832
11 139.999832 0.000119 -0.000060 -6.185087 -3.762520 -0.810889 139.999832
[Rope1_Seg06]
10 139.999954 0.000119 -0.000060 -5.359931 -3.059500 -0.127501 139.999954
11 139.999954 0.000119 -0.000060 -7.996859 -3.359187 -2.739721 139.999954
[Rope1_Seg07]
10 139.999985 0.000060 0.000000 -3.541581 -1.787284 -0.244950 139.999985
11 139.999985 0.000060 0.000000 -2.764335 -1.250234 -0.829032 139.999985
[Rope1_Seg09]
10 121.602913 0.000119 -0.000089 -33.260742 -1.369716 0.862382 121.602913
11 121.602913 0.000119 -0.000089 23.269510 -1.387769 0.862258 121.602913
[L_mid_hand01]
10 103.859421 1.038730 8.195221 104.354431 -0.290364 -0.605212 104.187431
11 103.859421 1.038730 8.195221 104.361534 -2.082833 -1.067391 104.187431
[L_mid_hand02]
10 105.572853 -4.139662 -10.864139 -135.643021 4.357895 -3.850538 106.211075
11 105.572853 -4.139662 -10.864139 -135.761230 5.651539 -5.175817 106.211075
[L_mid_hand03]
10 104.641464 17.579376 -3.913581 -18.764666 -0.116946 3.560568 106.179977
11 104.641464 17.579376 -3.913581 -18.760237 0.478582 5.313324 106.179977
[null_rope02_connect]
10 328.732849 0.000179 -0.000119 -160.511902 28.508120 -48.853569 328.732849
11 328.732849 0.000179 -0.000119 -169.514130 42.853554 -52.671642 328.732849
[Rope2_Seg01]
10 0.000095 0.000153 0.000019 -4.554817 -16.635513 -23.414072 0.000181
11 0.000095 0.000153 0.000021 20.465744 -16.998732 -40.237972 0.000181
[Rope2_Seg02]
10 139.999741 -0.000060 -0.000119 -35.555904 20.636721 38.645657 139.999756
11 139.999741 -0.000060 -0.000119 -75.387726 47.207905 25.626881 139.999756
[Rope2_Seg03]
10 140.000107 0.000030 0.000000 -13.557776 -8.119973 30.993439 140.000107
11 140.000107 0.000030 0.000000 -14.327816 -26.542774 27.968096 140.000107
[Rope2_Seg04]
10 139.999802 0.000000 -0.000060 -0.956339 -21.223341 6.237077 139.999802
11 139.999802 0.000000 -0.000060 -0.018932 -31.801262 2.311087 139.999802
[Rope2_Seg05]
10 139.999985 -0.000060 0.000119 -0.332449 -6.683977 1.987966 139.999985
11 139.999985 -0.000060 0.000119 -0.568073 -6.727883 1.179510 139.999985
[Rope2_Seg06]
10 139.999893 -0.000030 -0.000119 -0.114970 -3.024388 1.231678 139.999893
11 139.999893 -0.000030 -0.000119 -0.378206 -3.439072 0.621612 139.999893
[Rope2_Seg07]
10 139.999893 0.000060 -0.000060 -0.089784 -1.867343 0.754973 139.999893
11 139.999893 0.000060 -0.000060 -0.277001 -2.084675 0.362852 139.999893
[Rope2_Seg09]
10 121.338966 0.000089 -0.000060 33.793236 -1.359788 -0.847141 121.338966
11 121.338966 0.000089 -0.000060 33.793236 -1.359788 -0.847141 121.338966
[R_mid_hand01]
10 104.680779 11.144459 -10.335981 -43.666332 20.819098 23.152678 105.778534
11 104.680779 11.144459 -10.335981 -35.168285 34.192844 41.303879 105.778534
[R_mid_hand02]
10 104.070427 2.443552 8.231699 73.950394 -26.224144 7.780693 104.424065
11 104.070427 2.443552 8.231699 69.057709 -46.053474 15.939553 104.424065
[R_mid_hand03]
10 106.028137 -11.221827 -5.996406 -166.788940 8.765354 -30.281555 106.788818
11 106.028137 -11.221827 -5.996406 -170.748062 12.879352 -51.115482 106.788818
[spine02]
10 129.756927 0.001550 0.000119 1.047300 -3.925189 -22.840034 129.756927
11 129.756927 0.001550 0.000119 1.035689 -3.927953 -22.642799 129.756927
[spine03]
10 78.614067 0.081635 -4.899008 -2.327968 3.584060 -42.938477 78.766602
11 78.614067 0.081635 -4.899009 -2.258017 3.630831 -41.775150 78.766602
[pelvis]
10 169.435242 0.051022 0.000000 -0.062043 -0.179688 15.092623 169.435257
11 169.435242 0.051022 0.000000 -0.062102 -0.179668 15.130039 169.435257
[null_rope03_connect]
10 -1.257226 -2.466202 137.391083 -74.067688 -67.466255 -150.836365 137.418976
11 -1.257226 -2.466202 137.391083 -73.111435 -67.782173 -159.058685 137.418976
[null_rope04_connect]
10 -1.259640 -2.480268 -137.844437 -74.067688 -67.466255 -150.836365 137.872513
11 -1.259640 -2.480268 -137.844437 -73.111435 -67.782173 -159.058685 137.872513
[Rope3_Seg01]
10 0.000010 0.000029 -0.000114 -144.749939 30.125954 -103.531219 0.000118
11 0.000010 0.000028 -0.000110 -142.806412 32.750923 -96.920570 0.000114
[Rope3_Seg02]
10 139.999924 -0.000119 0.000060 -1.188551 -3.837114 -1.403591 139.999924
11 139.999924 -0.000119 0.000060 -1.413845 -4.345260 -0.261475 139.999924
[Rope3_Seg03]
10 139.999924 -0.000119 0.000119 -1.211720 -4.802979 -1.878231 139.999924
11 139.999924 -0.000119 0.000119 -1.481630 -5.427317 -0.462889 139.999924
[Rope3_Seg04]
10 139.999924 0.000119 0.000000 -1.196740 -6.167759 -2.584017 139.999924
11 139.999924 0.000119 0.000000 -1.530885 -7.007184 -0.786667 139.999924
[Rope3_Seg05]
10 139.999924 -0.000238 0.000060 -0.636778 -12.110369 -5.712450 139.999924
11 139.999924 -0.000238 0.000060 -1.287622 -12.862803 -1.854162 139.999924
[Rope3_Seg06]
10 139.999893 -0.000119 -0.000060 0.583575 -8.557241 -3.995555 139.999893
11 139.999893 -0.000119 -0.000060 0.265669 -8.529984 -1.411784 139.999893
[Rope3_Seg07]
10 139.999771 0.000060 -0.000119 0.568767 3.621162 2.439498 139.999771
11 139.999771 0.000060 -0.000119 0.528806 2.689933 0.538472 139.999771
[Rope3_Seg08]
10 139.999985 -0.000060 0.000000 0.835184 4.894592 2.933611 139.999985
11 139.999985 -0.000060 0.000000 0.669759 3.554548 0.640968 139.999985
[Rope3_Seg09]
10 90.185997 -0.000179 -0.000060 -32.787128 -1.360640 -0.845639 90.185997
11 90.185997 -0.000179 -0.000060 -58.209030 -1.359430 -0.848970 90.185997
[R_rear_hand01]
10 103.366196 -6.073594 -10.757982 -157.171555 9.603103 -11.017471 104.101845
11 103.366196 -6.073594 -10.757982 -158.916763 13.108895 -19.868313 104.101845
[R_rear_hand02]
10 100.509819 12.039542 -7.992327 -38.131191 7.480882 12.434045 101.543350
11 100.509819 12.039542 -7.992327 -36.772411 13.179006 19.981731 101.543350
[R_rear_hand03]
10 101.539970 5.215704 5.435467 84.201607 -11.195496 4.994810 101.819031
11 101.539970 5.215704 5.435467 83.929695 -20.503988 5.995982 101.819031
[Rope4_Seg01]
10 0.000010 0.000038 -0.000114 113.774330 -64.340752 -160.832733 0.000121
11 0.000010 0.000038 -0.000114 124.266029 -65.751579 -169.222900 0.000121
[Rope4_Seg02]
10 139.999985 0.000060 0.000119 12.943603 -34.199566 -17.207664 139.999985
11 139.999985 0.000060 0.000119 7.395822 -17.785728 -3.158605 139.999985
[Rope4_Seg03]
10 139.999924 0.000000 -0.000238 177.239868 -48.530426 -21.846340 139.999924
11 139.999924 0.000000 -0.000238 113.099121 -45.252632 -4.495996 139.999924
[Rope4_Seg04]
10 139.999985 0.000000 0.000119 1.372587 13.230610 7.465301 139.999985
11 139.999985 0.000000 0.000119 34.658813 7.493776 35.728703 139.999985
[Rope4_Seg05]
10 139.999802 -0.000060 -0.000119 -1.818113 9.335030 1.173342 139.999802
11 139.999802 -0.000060 -0.000119 -0.100120 10.099708 4.243802 139.999802
[Rope4_Seg06]
10 139.999924 0.000000 0.000060 -2.645696 16.589338 0.080833 139.999924
11 139.999924 0.000000 0.000060 -3.612877 13.407819 -2.271598 139.999924
[Rope4_Seg07]
10 139.999802 0.000000 0.000000 0.015755 16.527222 2.677908 139.999802
11 139.999802 0.000000 0.000000 -1.471785 16.157192 -0.596901 139.999802
[Rope4_Seg08]
10 139.999924 0.000000 0.000119 -0.763456 11.599850 2.012159 139.999924
11 139.999924 0.000000 0.000119 -1.293326 10.574247 1.089010 139.999924
[Rope4_Seg09]
10 90.185791 0.000060 0.000060 140.781860 2.228507 0.851375 90.185791
11 90.185791 0.000060 0.000060 119.845970 2.227639 0.849571 90.185791
[L_rear_hand01]
10 101.696655 -8.392275 -7.654577 -35.896191 -15.688193 156.491638 102.329041
11 101.696655 -8.392275 -7.654577 -28.485670 -27.460903 136.618759 102.329041
[L_rear_hand02]
10 102.726799 -1.568258 5.773216 83.734360 24.715420 173.509384 102.900848
11 102.726799 -1.568258 5.773216 81.736328 46.408432 170.132355 102.900848
[L_rear_hand03]
10 104.552910 9.721220 -10.420293 -159.895081 -14.596680 -156.045837 105.519653
11 104.552910 9.721220 -10.420293 -166.697159 -20.962837 -134.055527 105.519653
